<svg xmlns="http://www.w3.org/2000/svg" version="1.1" xmlns:xlink="http://www.w3.org/1999/xlink" xmlns:svgjs="http://svgjs.dev/svgjs" viewBox="0 0 800 800"><defs><radialGradient id="ccclaymoji-grad-dark" r="93%" cx="20%" cy="20%">
      <stop offset="70%" stop-color="hsl(205, 100%, 80%)" stop-opacity="0"></stop>
      <stop offset="97%" stop-color="#66a4cc" stop-opacity="1"></stop>
    </radialGradient><radialGradient id="ccclaymoji-grad-light" r="65%" cx="28%" cy="20%">
    <stop offset="0%" stop-color="#cdffff" stop-opacity="0.75"></stop>
    <stop offset="100%" stop-color="hsl(205, 100%, 80%)" stop-opacity="0"></stop>
  </radialGradient><filter id="ccclaymoji-blur" x="-100%" y="-100%" width="400%" height="400%" filterUnits="objectBoundingBox" primitiveUnits="userSpaceOnUse" color-interpolation-filters="sRGB">
	<feGaussianBlur stdDeviation="30" x="0%" y="0%" width="100%" height="100%" in="SourceGraphic" edgeMode="none" result="blur"></feGaussianBlur></filter><filter id="inner-blur" x="-100%" y="-100%" width="400%" height="400%" filterUnits="objectBoundingBox" primitiveUnits="userSpaceOnUse" color-interpolation-filters="sRGB">
	<feGaussianBlur stdDeviation="2" x="0%" y="0%" width="100%" height="100%" in="SourceGraphic" edgeMode="none" result="blur"></feGaussianBlur></filter><filter id="eye-shadow" x="-100%" y="-100%" width="400%" height="400%" filterUnits="objectBoundingBox" primitiveUnits="userSpaceOnUse" color-interpolation-filters="sRGB">
	<feDropShadow stdDeviation="10" dx="10" dy="10" flood-color="#0b0000" flood-opacity="0.2" x="0%" y="0%" width="100%" height="100%" result="dropShadow"></feDropShadow>
</filter><linearGradient gradientTransform="rotate(-25)" id="eye-light" x1="50%" y1="0%" x2="50%" y2="100%">
      <stop offset="20%" stop-color="#887f7f" stop-opacity="1"></stop>
      <stop offset="100%" stop-color="hsla(0, 8%, 18%, 1.00)" stop-opacity="0"></stop>
    </linearGradient><linearGradient id="mouth-light" x1="50%" y1="0%" x2="50%" y2="100%">
    <stop offset="0%" stop-color="#906a66" stop-opacity="1"></stop>
    <stop offset="100%" stop-color="hsla(3, 42%, 15%, 1.00)" stop-opacity="0"></stop>
  </linearGradient><filter id="mouth-shadow" x="-100%" y="-100%" width="400%" height="400%" filterUnits="objectBoundingBox" primitiveUnits="userSpaceOnUse" color-interpolation-filters="sRGB">
	<feDropShadow stdDeviation="10" dx="10" dy="10" flood-color="#170000" flood-opacity="0.2" x="0%" y="0%" width="100%" height="100%" result="dropShadow"></feDropShadow>
</filter></defs><g stroke-linecap="round"><path d="M618 449.9999995475831C618 583.3795682807367 533.3795687331536 691.5040426742678 400 691.5040426742678C266.62101886792453 691.5040426742678 182 583.3795682807367 182 449.9999995475831C182 316.6210184155076 266.62101886792453 208.49595642089844 400 208.49595642089844C533.3795687331536 208.49595642089844 618 316.6210184155076 618 449.9999995475831Z " fill="#66a4cc" opacity="0.25" filter="url(#ccclaymoji-blur)"></path><path d="M618 399.99999369651164C618 540.9795378560559 540.9795441595442 605.5783412748592 400 605.5783412748592C259.0210769230769 605.5783412748592 182 540.9795378560559 182 399.99999369651164C182 259.02107061958856 259.0210769230769 194.42164611816406 400 194.42164611816406C540.9795441595442 194.42164611816406 618 259.02107061958856 618 399.99999369651164Z " fill="hsl(205, 100%, 80%)"></path><path d="M618 399.99999369651164C618 540.9795378560559 540.9795441595442 605.5783412748592 400 605.5783412748592C259.0210769230769 605.5783412748592 182 540.9795378560559 182 399.99999369651164C182 259.02107061958856 259.0210769230769 194.42164611816406 400 194.42164611816406C540.9795441595442 194.42164611816406 618 259.02107061958856 618 399.99999369651164Z " fill="url(#ccclaymoji-grad-dark)"></path><path d="M618 399.99999369651164C618 540.9795378560559 540.9795441595442 605.5783412748592 400 605.5783412748592C259.0210769230769 605.5783412748592 182 540.9795378560559 182 399.99999369651164C182 259.02107061958856 259.0210769230769 194.42164611816406 400 194.42164611816406C540.9795441595442 194.42164611816406 618 259.02107061958856 618 399.99999369651164Z " fill="url(#ccclaymoji-grad-light)"></path><ellipse rx="25.5" ry="25" cx="350" cy="375" fill="hsla(0, 8%, 18%, 1.00)" filter="url(#eye-shadow)"></ellipse><ellipse rx="25.5" ry="25" cx="350" cy="375" fill="url(#eye-light)" filter="url(#inner-blur)"></ellipse><ellipse rx="23.5" ry="25" cx="450" cy="375" fill="hsla(0, 8%, 18%, 1.00)" filter="url(#eye-shadow)"></ellipse><ellipse rx="23.5" ry="25" cx="450" cy="375" fill="url(#eye-light)" filter="url(#inner-blur)"></ellipse><path d="M350 512.5Q400 562.5 450 512.5 " stroke-width="23" stroke="hsla(3, 42%, 15%, 1.00)" fill="none" filter="url(#mouth-shadow)"></path><path d="M350 512.5Q400 562.5 450 512.5 " stroke-width="7.666666666666667" stroke="url(#mouth-light)" fill="none" filter="url(#inner-blur)"></path></g></svg>